<mxfile host="Electron" modified="2024-07-02T15:57:02.758Z" agent="Mozilla/5.0 (Windows NT 10.0; Win64; x64) AppleWebKit/537.36 (KHTML, like Gecko) draw.io/21.2.1 Chrome/112.0.5615.87 Electron/24.1.2 Safari/537.36" etag="Ohfau5SUy3MwsKLpiJYB" version="21.2.1" type="device">
  <diagram id="CxXHXf7ZrD5Bo_5w6ZVo" name="Page1">
    <mxGraphModel dx="1418" dy="11" grid="1" gridSize="10" guides="1" tooltips="1" connect="1" arrows="1" fold="1" page="1" pageScale="1" pageWidth="1169" pageHeight="827" math="0" shadow="0">
      <root>
        <mxCell id="0" />
        <mxCell id="1" style="locked=1;" parent="0" />
        <mxCell id="IViEvebSK3WdW60ZEYL2-1" value="" style="group" parent="1" vertex="1" connectable="0">
          <mxGeometry x="10" y="835" width="1150" height="810" as="geometry" />
        </mxCell>
        <mxCell id="ZOfuy485RUKuuF4qbKnC-2" value="" style="rounded=0;whiteSpace=wrap;html=1;shadow=0;labelBackgroundColor=none;fontSize=26;fontColor=#000000;strokeColor=#000000;fillColor=#FFFFFF;" parent="IViEvebSK3WdW60ZEYL2-1" vertex="1">
          <mxGeometry width="1150" height="810" as="geometry" />
        </mxCell>
        <mxCell id="ZOfuy485RUKuuF4qbKnC-3" value="" style="shape=image;verticalLabelPosition=bottom;labelBackgroundColor=default;verticalAlign=top;aspect=fixed;imageAspect=0;image=data:image/png,iVBORw0KGgoAAAANSUhEUgAAAR0AAABFCAYAAAB3wDJVAAAACXBIWXMAAC4jAAAuIwF4pT92AAASOklEQVR4nO2dDZRcRZXH763u6cxHzygfySSwmkHQA5lJyEd3v9fALiAcBDULh13MsmyEKC4cYJGVeFRUFI7o0UV2gRW/dgUxLCi6CcsSYQmKCE6/fjOZnJxMlugeScKyBIJJTmYyJNPdVXuruxMmcSYzr95HvR7ql9Pp6Y+qel2v3q37f1W3CsGgG5bL5eYCVOZhAt8LgCeCgHcAYjN9Noser9e+Jl5DAS9XAF5CjluKxeJvwQDd3d3p9vaW0zlCDwJ2ocA5gKKD6jBd/8p+qtNdAsVO+uxVzmFQCLHZdd2X4W3E/Pnzj2lONy9gHLoRca5AmINCvJM+ku0MBOIICLELEP4gQGwTgP/NR/nm/v7+V4M+Fszlc5cxAV/wnhLcQm/xaogBdj73L9TIsl7TUUP9crG3uBoixrIWzUNsupBO/PvJ6p9Nb6UVstktAH5Dhug5upDWxNEIWVb2OkS4xHNCxD3Utj4ycb6y/pKX0oXxIco/Q28lvRZBFxZdTLhOCHgGxa7VjvM/e0ETVj57K53Hs7ymI0Pxe6e3eO1En2fymVxC4FKqzw+TQVlAxoaBd7bRYx2lf7pU4o+TERoBn6BtZ6+gg1qlkrg0WplLB7EdNLJkyZJ3N6US21TSCs4vd5y+RyACLKunE7GV6lqsoGrvCbwAARvp/4cOHCjdPzAwsBNigGVnH6aG/lcqacnoHOaFd3V1Nc+aM+sKBuI6qr/FECDk+YxSYas5x/vJeD8FEWPlc89Q+e9XSPo61VPn2Dek55fuaLkaBPsEGeR5ECzDVFePgqh8z3HWF1QzSQqx+3GAY0apcaQ8J06yy+jpm6CR+jF4RjY0gD1rIWRIOp3EEvB5+vNKqPbIISlahAX0/4IZzU232Xbux/Tz7nCcDb+DBocuolR7e9tNJI9uopqbE0b91dv+MjpPy8gA9HEhbncL7uPQQFSNTXvrZ6h6biCZ+c6Qmlma6moFYHKFZed+yVHc5va6v/KaCau5lbhO6RCYWi8WKMrHgOvCdKlPz59+IjXgB6khS9nzcVCQAIo0U4O7Ellqs5Sd2Wz2XdCg2HbmIjI4m+j3fJ0upDlRlEnXaiaB+B907p4kL/pkaAByuczl7R1tL5JB+ELV4EQAeVHnJgCfJaX0iGzrXtJWNR6C+DelgukESXkDmpBly2NQSav6m6cAoxNxYwvM2EzHthyiMzZHIsv9eCKJm+XxQP1cNwp00a8BZGvpRL0XNEDn7gMk2zfl8pkbIL602vnsOpZgsi2fCDpAXCbbumVl/mKqSaoNUUqsmtzwjqq8CQI/0qomK4NFSilqBL10Iu6mlx0QD9LyeMgdfkEeHzQIdNFfDPppZsDulb05dXCtED/SVFPngX46kLGfWnZWtvtJO7fqFxpWYsVIWpGlvxgTYr0cEIQYQu6wLY9PHicYvEG9eVOKPS3vm4BhQkje3UgGeo28D3e07x2ySo0mseIkrXJ25hay9Gui0tOq1G4w4r9bVvazYPAInpFub3veGJ5JQFya7mh7/GiG55DRaTSJFRNpxax89h8ZsjugQZBzNejf1+RxQ4Pd59ENeYunt7e3rp6sJ3+7Q87ABVRPD8IE7evQmw0nsWIgrWw79wPyHm6CBkQet5XP3QcGbyCen+5ovQsMR4ckKV0fK8f76DBL1CgSKw7Siir0Djk0DQ0M1eE15PF8DQyeIIN9vbk3NgUQ7rDtJdaRbx9mdBpFYumWVtVhVIRbYBpAF9Bn6fdcAwZPIGPfW7hwYazv4cWAJGBi1ZFy9DCj0zASS6O0yuVyeRTVIfHgECCD7V4go3ifAPFpwcX1gvOPygcXcFX9vdvpizJObBsEDP2ee8brkQxHZVZzc+pWMEzGKSRHbxz7xh9NXKvJD/yg15wPSqywY7F0SqvufPexDMRPZT8H/tlGxuTRCj36Cn199JpPNeGiRYtmzpiRlIGUl5F2Phd8TkCUYQBCJNZQz33ahg0b9kCDIQRsRoRBGR1NBrQadyZQzCQvbi79NZ9+4amhFIzwd9Qe/0l3/OFUoA6NU31sElRP9OoVeus1anFJcjs66XqaKwQupDoMZR4Xlfsl8na+Mzg4OCxfJ//44OIdi+Ur1sqntEpD2w/o6QQ/eZBX8zv674uFgvsoeDA0Y6kHdH5fPqqxXQy+RBfccsUo4irU4GbPaEndQ39+FBqBaoCr+OcDB8prJgtwrQXbtvy5ALwp4CDIZDLFPkXPsR1MEAC/Bs6prex5rDCJl0+d2VzqzC6u11OQBijd1t72CXqWI6bjh4VZdu4JKtSzt0M/sM/pLXpeYsILVj7nqng61BuudQrFD6mWm8vnPkxXtLLRqkUy48pCofhtelmGgJHLPQBr+qGqF3gQsoJLi73F/4QA8BNlPhHUxjZwIW5VDMhklpVZSrb59nqAbBAMl0YrnX6WfPARZT4h0thw6txUAjKJpG1nl1Ed3UYmIqD4M7G90OtKQ8bH7RnjOoqlS1rJZRVIVn0L1NlGzu2ZZHDuhRAMjsRxBjYP7913Jhm37/vJh+rp7jjOQ5HyAAS/i36j5SMCnDtO32NDQ/uyMq9qnv5JNzWxCyE+lOU9QOr8z1E0ONU8yBN/aGjvyEKyXj+EQMB3W9aSM+Rf4xqduI5iUd5/rZLO76jV7NkzV8pKU0lLPc4g9YSZYrHYByFDmnnUKbh/Kxudah7kjb2nvb0tVqNZNWksLi0U+m6Wv9FvfjIPmZfMU7WdH8EVEAPot7wheOVcp9e9ExSl+1jkPRjqKK/iwK+FAEBMVBdmG9foxHUUi1z1yxVTKo9ayUA/MhyfVElLkm7H6P7SBeR6vwERUm101JMrZ4Dw5RgFOJY5wsXSQwk6Y5knec4f8+vxUPv4M9DPMIjKhY7T/3zQGRd7+75LP/LmALKSq2ROPA0+bhJrcX7xKao63I+0SqZwBRm741XSkh5YPjAw8H+gAerJP0OXw3rF5MeSZIjFxEfy2j5HMuHJsPKXMoK8u8/5yUO2j1wu9z7QiRDXOs76/rCyJ4/nLuHvFoM8lz2WdUrHhEYnbhIrKdhHVNL5lFaMGqTaJEDSwm7BVfMWg6FMrvYK1V5c1MI7tMZmkadYIK8t9JADuqDu9GGgqzAmgl+CdoqQp7VGGs+wy3nt1Z0yrGGravra6GrHvAkblR+JRVkr3Xs5GgzYMrWU6tLKtjPkNqPnIXJ5oVcqcjKfXqjn24gISrKE0r0vm82eBRrhKKRLz6MoqlKGv/eTgUB4D2hAtjVeFjdHUdbWrVv308n4vL9cWNdRezJ1WYKLq3IoIHRJK0qtJDFIYv7Cdd3fQwyoCFAO6mRJ1Cax5PQLklW/gYig8/WcnGSomh4FalnalLyHtVG2tWJv8SdwaFsk75Czc8JRjY4viaUoh4LMy4+0qg4bI16qkpaD2u4aYUAS7xekpZVmGZPxvETX8LkA/hOIGhQ/Vk+rZ6VI8jwehmgpU4fgYx4XP/GoRsePxFKXQ0HmpS6tWjta5XwgpYbEYFR1fkQYcLk3lmLaY+v1EDnI+a8hYlAI1XqSHZyW+19MjEbmDR6EjM4zftJPWlHK8oTkUBASS5e0SgjlGaLDhcIG5ZttIeGqJqQL8RzQAOeJyOvwwIFKQ+2aKj15LW2tAr7qadJAQV+xWDVZ9FXwQTUPhT18Aoi1UlrwmspNyQ0M6VlZ9wYJYvUcn6GankE1oNTXOVTBdd0dEDG7d+/eNXvOLGgU6JrUFZzra6WGSY2OlCeWnZMSy3MsVl0W+WqwOqRVLTmqhVvUjPMqeobpALnSC+FtghydaSSjo4tSqTQ8I9GknH5KOlSXxKpOuNIgrRYsWCBbnlmAG2oT3+SSHmAwBMSUjI6uUSzGhI4JgdDS0qR3dmnMSPMZpj4MgTElo6NtFAtBi7QSLKFt19I4wtHUhyE4pjzMF7XEqsWyYI9akf5WCEQuzNq3Y2ACTH0YAmPKRsePxEqJhOfIc13SSoKIzWB4CybiuKWuoUGZstHxtdyFikzSJK1qcD2b0ccUFOx4MBgCwtssSsEfUSsGe7yE/uuUVjXYm2AYA28BgyEgPBmdYfbmE6C43KYXuaRTWlXzQR7polvxh70CBkNAeDI6g72Du+jKflapJC9ySau0AjlcMwKGQ3AAUx+GwPAcpEbehGJU69Qkln5pVQ0dMJ7OGBjEI6TDMD3wvEkbSaw17dD2XZW0ddn0lcm/4z2EIIh9rd6CbwVIeE5VPQbEn0FIOz7oAIUYHsKRZ8FgCAjPhkNKLNvOPksX1/meS6vJpq9M4TsKBCStiKGh/b9t72jznA4BXyz0FgNfNdFgmE4orQESlsSKg7SS1LY/FZ4XVJcLT2ez2dlgMBgmRMnoSIkFIYxi6R61OixPwKLXNHLhacYgsMXLDIbpiJLRCW0UKwbS6iACuNrqaIjXgeZdFAyGOKN8cQQtseIirQ7CS6BkVOUuCpaVicWOjwZDHEmqJgx6FCseo1Zv0dfXt8nO5+RSkF1e05LK+mp3d/fq2r0hvcidOknzHcfYm57j5hxn02tgMASMsqcTuMSKkbQ6iODiQaWECH+S7mi7E/TDkk0JN5HE7chad3h92Hb2KjAYAsbXvYegJFbcpNWhvLF0v3JagGssK7sCNEIy71KSe/NU0lY3ceMY+U4DhumPL6MT1CgWMrEc1CgP4cjPISTkSvsClLdvkZbnO9l8VnlRdD9Uh+6R3auaXm4YWCwWG2p3BENj4MvoBCexUG1JUyq7egxhwivK26jKRdoTgE+R4TkPImTJkiXHsySuIy9Hec5QBeDrYDCEgO+hXT8Siy6OUzOZTI8c8VHJQb3sqeM4/c9TSX5kRpoJWJuzc5Fs0UtS9aSmVOI58lS61XMRL7oFdx0YDCHg2+j4kVjJVOLhRBP7EahRrpcdOtTr3+InvfR4GMIDtp17IMydFWw7cxFLQB/9eZqffHiFrwSDISR8Gx0/Eot644Wouq9SFNKqjtvr/koA/Mh3RghXpkXrlrrXE9gEQund2HZ2FSBbSy99GTUh4JfFYv8TYDCERDKITKTMQZUAUB9EIa3G8ua+/Stb2mYsRUBfi5TLfaTI0D5g57NfBAH3cI4PFYvFP6jkZVmLbWTJq6kuloPCDqzjsF9wuBYMhhAJxOj4mSioSGTS6iAbN258nbyJG8hbWRVMjngy5XU3yaFvkgF6gQvxX8BZf6lUenFgYOBlqK6d9RbkzRzHE/zkBMduZHgmeSQXIMK7qjkFtJuo4OK2YtE1I1aGUAnESPha7kIFKa0K0UirsRQK7kNWPpsnb+f6ALOlc4BnM8Sz5RI+crtWO5+jt8VOuRmO/AJ5MjPJrjAmFVldlAW/a7F40nHcb4DBEDKB3VeIUu5ELa3GMrx35FPkZfSHXxLOpP865UNGr4dbltheKYOcyMjBYAiZwBqzn1Esj0QurcYyODg4Wi5VLpTDyjA9GCaD80HXdXeAwRABgRkdXxMFvRDhqNVE9Pf3v1Ea5R+QHgI0NsOCVy4igzMIBkNEBOq2RyF7dEqrsZDh2U6G508FiC3QmFQNTm3yo8EQHYEanQgkllZpdSTS8JRH+VlCQAEaCDreHSAqZxuDY9BBoEYndIkVA2l1JFJqlUuV88gDux8agKqBFPuzhUL/ejAYNBD4qEiY8icu0upIyPCMOAX3Y3SAf0Mv90IMkUtVkBS8c3hoH3k4G/8XDAZNBG50QpRYsZJW4yHn8VTKoocu8J9BrBCbSE6d6fS6n5ajb2AwaCRwoxOaxIqhtBoP13VfJq/nLwXnF5CU2QwaIeP3Bvk31xd63UWOs76h7jsZpi+hTDoLQwbFVVpNhOP0Pe0UivPJ+Fyi4UbzK1RhnxweGjnJcdz7YBrtOGpofEKJlarHYv0D+Ix4PojsseMurSaAk/F5jJ4fy+QzuYTAKxFwGSAcF3RBcoF6RHiCV/i/Fov9T0EMDI0A2KYYrbENtCE3WcQTPKfyccwoxHaluBYBL4EGUqmhYbq05b3LDq9pOcJLgUfwGCYlaVmZcxHZ+dTazqEmtxiUjb/YRF5UL1mcp8pl8XN5QxtixqJFi2amUiVPHvXwsNit695Td3d3Kp3GY7ykGR1t4gMDAzv9lGtZPZ1e0zjOJrk6gZbOpaurq7mzM/0OL2mEaC3LFRWM0dGM3CKmqQlO5Zg4GUGcRr1XJ/V67fRRB/WArfWvvU496Qh99qpguB15eXDPnn2DW7ZsGQKDoaEA+H9XZg1i+cMf2gAAAABJRU5ErkJggg==;" parent="IViEvebSK3WdW60ZEYL2-1" vertex="1">
          <mxGeometry x="1061" y="16" width="78.48" height="19" as="geometry" />
        </mxCell>
        <mxCell id="dABAcik62N2KsOq1OzBU-1" value="Untitled Layer" parent="0" />
      </root>
    </mxGraphModel>
  </diagram>
</mxfile>
